#!OML:ASF E:\Style6\Style6.ASF
:FULLY-SPECIFIED
:DEGREES
3707
root 1.14281 17.2993 -0.537117 32.7802 37.163 -8.75343
lowerback 32.9778 -0.705095 6.8064
upperback 18.053 1.48533 -6.55615
thorax 3.07176 1.9781 -11.0364
lowerneck 2.06065 -0.151702 9.19651
upperneck -10.2188 -0.163858 -5.31096
head -3.3891 -0.179523 -3.11708
rclavicle -9.93923e-014 -4.92613e-015
rhumerus 42.9915 13.1598 -75.4783
rradius 126.482
rwrist 2.64001
rhand -21.2333 3.2601
rfingers 7.12502
rthumb 5.14909 -26.6573
lclavicle -9.93923e-014 -4.92613e-015
lhumerus 40.5714 -9.46439 48.6923
lradius 129.105
lwrist 2.56109
lhand -12.9402 26.0582
lfingers 7.12502
lthumb 13.1508 55.6235
rfemur -57.2305 -21.5689 41.8524
rtibia 35.758
rfoot -13.2108 -18.0092
rtoes -4.99263
lfemur -69.3689 -11.6303 -0.657885
ltibia 42.5104
lfoot -7.00893 -10.2918
ltoes -12.7366
3708
root 1.14186 17.3044 -0.531817 32.8318 37.1635 -8.77508
lowerback 33.0053 -0.707621 6.75368
upperback 17.9835 1.46581 -6.49391
thorax 2.97862 1.94986 -10.9327
lowerneck 1.77629 -0.106377 8.99375
upperneck -10.8938 -0.183257 -5.69744
head -3.54346 -0.172572 -3.20861
rclavicle 7.51406e-014 9.54104e-014
rhumerus 42.9858 13.3337 -75.1491
rradius 126.72
rwrist 2.42132
rhand -21.4077 3.2612
rfingers 7.12502
rthumb 4.98073 -26.6603
lclavicle 7.51406e-014 9.54104e-014
lhumerus 40.0369 -9.51494 48.6264
lradius 129.6
lwrist 2.88855
lhand -12.8504 25.6179
lfingers 7.12502
lthumb 13.2374 55.1776
rfemur -57.182 -21.3124 41.723
rtibia 35.685
rfoot -13.4188 -18.2165
rtoes -3.37361
lfemur -69.3843 -11.6163 -0.61179
ltibia 42.4595
lfoot -6.99455 -10.2398
ltoes -12.3241
3709
root 1.1407 17.3056 -0.527399 32.9607 37.153 -8.83743
lowerback 32.9027 -0.682425 6.61415
upperback 17.8808 1.44873 -6.36324
thorax 2.89456 1.9076 -10.7051
lowerneck 1.58605 -0.0304072 8.64359
upperneck -11.7688 -0.155704 -5.98506
head -3.77032 -0.137106 -3.25
rclavicle 1.11319e-014 -9.44227e-015
rhumerus 42.9471 13.4331 -74.7618
rradius 126.999
rwrist 2.0011
rhand -21.6919 3.23928
rfingers 7.12502
rthumb 4.70631 -26.6884
lclavicle 1.11319e-014 -9.44227e-015
lhumerus 39.3882 -9.60913 48.6785
lradius 130.022
lwrist 3.27203
lhand -12.7948 25.354
lfingers 7.12502
lthumb 13.291 54.9102
rfemur -57.2341 -21.0125 41.6812
rtibia 35.5948
rfoot -13.8227 -18.3161
rtoes -1.01927
lfemur -69.5086 -11.5415 -0.513483
ltibia 42.4437
lfoot -7.07213 -10.1417
ltoes -12.2314
3710
root 1.13912 17.2988 -0.522136 33.1226 37.1085 -8.82638
lowerback 32.82 -0.646417 6.37872
upperback 17.756 1.42056 -6.23886
thorax 2.77341 1.85075 -10.4293
lowerneck 1.63012 0.0574364 8.25602
upperneck -12.9637 -0.0897281 -6.14387
head -4.13172 -0.0804996 -3.25224
rclavicle 4.53229e-014 -3.79679e-014
rhumerus 42.8627 13.5865 -74.3228
rradius 127.25
rwrist 1.69015
rhand -21.7479 3.28985
rfingers 7.12502
rthumb 4.6522 -26.6391
lclavicle 4.53229e-014 -3.79679e-014
lhumerus 38.6737 -9.77619 48.7382
lradius 130.448
lwrist 3.67705
lhand -12.7995 25.2769
lfingers 7.12502
lthumb 13.2864 54.8334
rfemur -57.3217 -20.854 41.7326
rtibia 35.4989
rfoot -13.7512 -18.5931
rtoes -2.29428
lfemur -69.6396 -11.4697 -0.499911
ltibia 42.4472
lfoot -7.18251 -10.0494
ltoes -12.2954
3711
root 1.13816 17.2929 -0.51561 33.2568 37.0751 -8.85498
lowerback 32.7315 -0.610422 6.15237
upperback 17.6437 1.39553 -6.11192
thorax 2.66984 1.79815 -10.1573
lowerneck 1.63796 0.125768 7.92556
upperneck -14.2347 -0.0497385 -6.25748
head -4.51463 -0.0372457 -3.25171
rclavicle 7.55382e-015 -5.39825e-014
rhumerus 42.8218 13.8581 -73.8762
rradius 127.4
rwrist 1.60507
rhand -21.4222 3.28233
rfingers 7.12502
rthumb 4.96665 -26.6395
lclavicle 7.55382e-015 -5.39825e-014
lhumerus 37.9862 -10.0601 48.829
lradius 130.751
lwrist 3.79785
lhand -12.764 25.238
lfingers 7.12502
lthumb 13.3207 54.7923
rfemur -57.4018 -20.7545 41.8662
rtibia 35.393
rfoot -13.594 -18.7871
rtoes -3.79076
lfemur -69.7671 -11.3844 -0.460849
ltibia 42.4585
lfoot -7.30242 -9.96371
ltoes -12.2527
3712
root 1.13899 17.2902 -0.508279 33.408 37.1465 -8.88829
lowerback 32.5653 -0.657195 5.90941
upperback 17.544 1.26734 -5.90545
thorax 2.58866 1.6895 -9.76046
lowerneck 1.53753 0.216141 7.25753
upperneck -15.4056 0.0108318 -6.22467
head -4.85027 0.0305158 -3.14951
rclavicle -3.53837e-014 -1.6524e-015
rhumerus 42.9002 14.4062 -73.4151
rradius 127.503
rwrist 1.52327
rhand -21.1107 3.3211
rfingers 7.12502
rthumb 5.26747 -26.5934
lclavicle -3.53837e-014 -1.6524e-015
lhumerus 37.2424 -10.124 48.9882
lradius 130.909
lwrist 3.89635
lhand -12.788 25.1375
lfingers 7.12502
lthumb 13.2976 54.6932
rfemur -57.5244 -20.7204 42.0175
rtibia 35.3051
rfoot -13.6674 -18.8543
rtoes -3.8411
lfemur -69.9343 -11.351 -0.367894
ltibia 42.4648
lfoot -7.41053 -9.92123
ltoes -11.9491
3713
root 1.1399 17.2862 -0.501193 33.534 37.2196 -8.93175
lowerback 32.4671 -0.66791 5.7091
upperback 17.4132 1.19467 -5.71305
thorax 2.46211 1.61055 -9.41958
lowerneck 1.25806 0.25551 6.66915
upperneck -16.3271 0.017284 -6.07392
head -5.08629 0.0616883 -3.0169
rclavicle -1.63003e-014 8.54153e-014
rhumerus 42.874 14.8539 -73.0595
rradius 127.656
rwrist 1.36167
rhand -20.9337 3.28764
rfingers 7.12502
rthumb 5.43841 -26.6226
lclavicle -1.63003e-014 8.54153e-014
lhumerus 36.6198 -10.0916 49.1065
lradius 131.083
lwrist 4.31573
lhand -12.8165 24.8687
lfingers 7.12502
lthumb 13.2701 54.4263
rfemur -57.637 -20.7 42.1764
rtibia 35.2265
rfoot -13.6434 -18.9162
rtoes -4.07332
lfemur -70.0803 -11.321 -0.258964
ltibia 42.4691
lfoot -7.49397 -9.88915
ltoes -11.4052
3714
root 1.14047 17.2811 -0.494729 33.634 37.2376 -8.97974
lowerback 32.4293 -0.614139 5.58504
upperback 17.2713 1.21759 -5.65796
thorax 2.32117 1.59446 -9.29805
lowerneck 0.945644 0.241467 6.72125
upperneck -17.1733 -0.0223558 -6.0272
head -5.29797 0.0381846 -3.0214
rclavicle 2.94201e-014 4.82053e-014
rhumerus 42.7924 14.9471 -72.864
rradius 127.785
rwrist 0.999274
rhand -20.9013 3.18727
rfingers 7.12502
rthumb 5.46965 -26.7221
lclavicle 2.94201e-014 4.82053e-014
lhumerus 36.2289 -10.3196 49.0634
lradius 131.303
lwrist 4.82882
lhand -12.7723 24.6648
lfingers 7.12502
lthumb 13.3127 54.2196
rfemur -57.7418 -20.6851 42.3231
rtibia 35.1734
rfoot -13.5529 -18.9538
rtoes -4.76267
lfemur -70.1883 -11.2627 -0.185752
ltibia 42.4752
lfoot -7.5379 -9.83111
ltoes -11.146
3715
root 1.14057 17.2766 -0.489745 33.6196 37.229 -9.06408
lowerback 32.5026 -0.572626 5.47423
upperback 17.1561 1.23455 -5.6485
thorax 2.16755 1.58149 -9.23275
lowerneck 0.587471 0.273967 6.94142
upperneck -17.9128 0.00727516 -6.02691
head -5.46519 0.0402889 -3.07082
rclavicle -1.15295e-014 -7.4917e-015
rhumerus 42.7485 15.0573 -72.7255
rradius 127.883
rwrist 0.614666
rhand -20.8456 3.14182
rfingers 7.12502
rthumb 5.52339 -26.7662
lclavicle -1.15295e-014 -7.4917e-015
lhumerus 35.8814 -10.822 49.1019
lradius 131.428
lwrist 4.86559
lhand -12.8011 24.5589
lfingers 7.12502
lthumb 13.2849 54.1155
rfemur -57.7345 -20.6592 42.4027
rtibia 35.1283
rfoot -13.6019 -18.8529
rtoes -4.61235
lfemur -70.2041 -11.1971 -0.145479
ltibia 42.5012
lfoot -7.67535 -9.76428
ltoes -11.9346
3716
root 1.14295 17.2736 -0.48697 33.5441 37.2212 -9.18593
lowerback 32.6032 -0.537944 5.4543
upperback 17.073 1.26947 -5.61856
thorax 2.04526 1.58569 -9.19994
lowerneck 0.259998 0.241031 6.86125
upperneck -18.5162 -0.0150037 -5.68901
head -5.60255 0.0122033 -2.95757
rclavicle -5.12864e-014 1.30452e-014
rhumerus 42.704 15.0435 -72.6891
rradius 127.946
rwrist -0.0534141
rhand -20.3775 3.36724
rfingers 7.12502
rthumb 5.97535 -26.5285
lclavicle -5.12864e-014 1.30452e-014
lhumerus 35.6361 -11.3573 49.2801
lradius 131.441
lwrist 4.64534
lhand -12.9644 24.4639
lfingers 7.12502
lthumb 13.1275 54.0306
rfemur -57.701 -20.6543 42.4828
rtibia 35.0958
rfoot -13.629 -18.6575
rtoes -3.69829
lfemur -70.1982 -11.1336 -0.105246
ltibia 42.5475
lfoot -7.80727 -9.67756
ltoes -12.8819
3717
root 1.14444 17.2715 -0.485261 33.4805 37.1865 -9.32497
lowerback 32.6615 -0.466231 5.51162
upperback 17.0066 1.3666 -5.61047
thorax 1.9709 1.62998 -9.25025
lowerneck 0.216816 0.101497 6.83586
upperneck -19.2383 -0.144373 -5.21743
head -5.83499 -0.0816282 -2.80821
rclavicle -1.06946e-013 2.05369e-014
rhumerus 42.6672 14.7133 -72.8307
rradius 127.966
rwrist -1.00793
rhand -19.426 3.62568
rfingers 7.12502
rthumb 6.89394 -26.2421
lclavicle -1.06946e-013 2.05369e-014
lhumerus 35.5374 -11.6146 49.4183
lradius 131.508
lwrist 4.60977
lhand -13.1561 24.4086
lfingers 7.12502
lthumb 12.9427 53.9872
rfemur -57.7238 -20.642 42.6062
rtibia 35.0793
rfoot -13.4215 -18.5915
rtoes -4.04491
lfemur -70.2128 -11.025 -0.0645339
ltibia 42.604
lfoot -7.87272 -9.64221
ltoes -13.0718
3718
root 1.14554 17.2691 -0.483287 33.4553 37.1412 -9.53963
lowerback 32.622 -0.393767 5.54129
upperback 16.9149 1.45145 -5.55483
thorax 1.90184 1.66023 -9.22966
lowerneck 0.199338 0.00811573 6.80751
upperneck -19.685 -0.228738 -4.90306
head -5.98122 -0.143789 -2.70551
rclavicle -2.94201e-014 -1.24986e-014
rhumerus 42.6651 14.4948 -72.9761
rradius 128.05
rwrist -1.84991
rhand -18.4709 3.50432
rfingers 7.12502
rthumb 7.81581 -26.3312
lclavicle -2.94201e-014 -1.24986e-014
lhumerus 35.3381 -11.6873 49.621
lradius 131.552
lwrist 4.54527
lhand -13.347 24.2204
lfingers 7.12502
lthumb 12.7587 53.8106
rfemur -57.8469 -20.5845 42.8291
rtibia 35.1042
rfoot -13.2026 -18.454
rtoes -4.44787
lfemur -70.2965 -10.8616 0.0777248
ltibia 42.6437
lfoot -7.81799 -9.58875
ltoes -12.5606
3719
root 1.1454 17.268 -0.482427 33.4174 37.0083 -9.68471
lowerback 32.6616 -0.307369 5.38259
upperback 16.8038 1.5082 -5.44515
thorax 1.77142 1.65687 -9.0404
lowerneck 0.130486 -0.0241139 6.64431
upperneck -19.6828 -0.270792 -4.79259
head -5.97151 -0.161851 -2.64005
rclavicle 2.42517e-014 -2.84386e-014
rhumerus 42.722 14.5419 -72.9856
rradius 128.038
rwrist -2.39971
rhand -18.1169 3.27726
rfingers 7.12502
rthumb 8.15747 -26.5453
lclavicle 2.42517e-014 -2.84386e-014
lhumerus 35.0282 -11.8284 50.1008
lradius 131.442
lwrist 4.18869
lhand -13.3094 23.8375
lfingers 7.12502
lthumb 12.7949 53.4254
rfemur -57.9495 -20.5205 42.94
rtibia 35.174
rfoot -13.1112 -18.2525
rtoes -4.11466
lfemur -70.2804 -10.6621 0.0902166
ltibia 42.6439
lfoot -7.77185 -9.61217
ltoes -12.0359
3720
root 1.14626 17.2724 -0.482457 33.4361 36.7882 -9.60906
lowerback 32.686 -0.198166 5.07234
upperback 16.7389 1.55634 -5.36843
thorax 1.69073 1.647 -8.80185
lowerneck 0.352031 -0.0641857 6.48379
upperneck -19.7275 -0.320013 -4.74936
head -6.02618 -0.177314 -2.59769
rclavicle 1.78906e-014 8.30982e-014
rhumerus 42.8176 14.5756 -73.0201
rradius 127.852
rwrist -2.78218
rhand -18.0173 3.12552
rfingers 7.12502
rthumb 8.25361 -26.6933
lclavicle 1.78906e-014 8.30982e-014
lhumerus 34.7593 -12.1186 50.6653
lradius 131.247
lwrist 3.53675
lhand -13.3909 23.4586
lfingers 7.12502
lthumb 12.7163 53.0514
rfemur -58.0043 -20.5071 42.8035
rtibia 35.2623
rfoot -13.0879 -18.0307
rtoes -3.29732
lfemur -70.1524 -10.5303 -0.144768
ltibia 42.6122
lfoot -7.73458 -9.63332
ltoes -11.877
3721
root 1.1486 17.2826 -0.481598 33.4186 36.4439 -9.46424
lowerback 32.7329 -0.048658 4.59804
upperback 16.7251 1.61405 -5.29462
thorax 1.65455 1.63559 -8.48
lowerneck 0.573435 -0.0882054 6.16145
upperneck -19.57 -0.340762 -4.61144
head -6.01502 -0.174603 -2.49596
rclavicle -3.73715e-014 -6.36794e-014
rhumerus 43.0358 14.6773 -72.9688
rradius 127.576
rwrist -3.02035
rhand -17.9446 2.8246
rfingers 7.12502
rthumb 8.32382 -26.9914
lclavicle -3.73715e-014 -6.36794e-014
lhumerus 34.5136 -12.1185 51.1926
lradius 131.087
lwrist 3.07019
lhand -13.6093 23.2627
lfingers 7.12502
lthumb 12.5058 52.8685
rfemur -57.922 -20.4258 42.4733
rtibia 35.3296
rfoot -12.8986 -17.9156
rtoes -2.8424
lfemur -69.9013 -10.4285 -0.476827
ltibia 42.5903
lfoot -7.74792 -9.5608
ltoes -12.0507
